<?xml version="1.0" standalone="no"?>
<!DOCTYPE svg PUBLIC "-//W3C//DTD SVG 20010904//EN"
 "http://www.w3.org/TR/2001/REC-SVG-20010904/DTD/svg10.dtd">
<svg version="1.0" xmlns="http://www.w3.org/2000/svg"
 width="951.000000pt" height="951.000000pt" viewBox="0 0 951.000000 951.000000"
 preserveAspectRatio="xMidYMid meet">
<metadata>
Created by potrace 1.14, written by Peter Selinger 2001-2017
</metadata>
<g transform="translate(0.000000,951.000000) scale(0.100000,-0.100000)"
fill="#000000" stroke="none">
<path d="M4680 8736 l0 -756 -113 0 -113 0 0 80 c-1 148 -20 160 -243 160
l-161 0 -30 -27 c-17 -16 -33 -37 -35 -48 -2 -11 -4 -446 -4 -967 l-1 -946
-122 1 -123 2 -1 153 c0 109 -5 160 -14 178 -29 53 -42 55 -402 54 -360 -1
-372 -3 -397 -57 -7 -16 -11 -174 -11 -483 l0 -460 230 0 230 0 0 -945 0 -945
-204 0 c-113 0 -216 -4 -230 -10 -50 -19 -57 -44 -57 -217 l0 -159 -237 0
-237 1 -1 150 c-1 83 -2 156 -3 163 -1 8 -14 27 -30 43 -29 29 -31 29 -144 29
l-115 0 -6 38 c-3 20 -8 71 -11 112 -6 72 -15 174 -19 195 0 6 42 11 109 12
61 1 120 2 133 2 l22 1 0 481 c0 429 -2 485 -17 510 -29 48 -51 54 -229 53
l-164 0 -32 -32 -33 -32 -1 -152 c-1 -84 -3 -157 -3 -163 -1 -6 -78 -10 -211
-10 l-210 0 -1 40 c0 22 0 87 0 145 0 195 -10 204 -229 204 -242 1 -243 0
-246 -224 -1 -85 -3 -157 -3 -160 -1 -3 -95 -5 -211 -5 l-210 0 -1 55 c0 30 0
100 -1 155 0 168 -19 182 -245 180 -101 0 -159 -5 -175 -14 -53 -28 -52 -19
-54 -544 0 -486 0 -487 20 -488 12 -1 74 -1 139 -1 l118 0 -6 -97 c-3 -53 -8
-116 -10 -141 -2 -25 -7 -94 -10 -155 -3 -60 -7 -130 -10 -155 -2 -25 -7 -92
-10 -150 -3 -58 -8 -125 -10 -150 -2 -25 -6 -88 -10 -140 -3 -52 -8 -120 -10
-150 -3 -30 -7 -89 -10 -130 -4 -74 -11 -181 -20 -310 -8 -125 -15 -225 -20
-280 -2 -30 -7 -100 -10 -155 -3 -55 -8 -122 -10 -150 -6 -75 -14 -189 -20
-295 -3 -52 -8 -117 -10 -145 -2 -27 -7 -86 -10 -130 -12 -187 -15 -224 -20
-295 -3 -41 -7 -109 -10 -150 -13 -203 -16 -249 -20 -300 -3 -30 -8 -95 -11
-145 -11 -177 -24 -363 -29 -422 l-3 -33 392 0 c4517 -2 8990 1 8997 5 5 4 7
16 4 28 -2 12 -7 72 -11 132 -12 206 -24 384 -29 445 -2 25 -6 86 -10 135 -3
50 -7 119 -10 155 -3 36 -7 103 -10 150 -3 47 -8 112 -10 145 -6 85 -14 197
-20 290 -3 44 -7 103 -10 130 -2 28 -6 100 -10 160 -3 61 -8 130 -10 155 -7
79 -23 306 -30 430 -9 134 -21 319 -30 435 -2 33 -7 101 -10 150 -3 50 -8 117
-10 150 -3 33 -7 98 -10 145 -3 47 -7 108 -10 135 -4 46 -13 179 -20 300 -13
223 -18 297 -24 347 l-7 56 133 -1 c73 0 136 3 140 7 11 11 13 923 2 967 -6
26 -18 40 -46 55 -34 19 -55 21 -190 19 -228 -2 -233 -7 -233 -237 l0 -153
-203 0 c-111 1 -207 4 -212 7 -7 4 -10 56 -9 140 3 235 -6 244 -243 243 -223
-1 -230 -8 -231 -210 -1 -71 -1 -141 -2 -155 l0 -25 -205 0 c-112 1 -208 4
-212 8 -4 4 -7 77 -8 162 l-1 155 -32 32 -31 32 -164 0 c-183 1 -206 -5 -232
-59 -13 -28 -15 -100 -15 -509 l0 -476 28 -1 c15 -1 74 -1 131 -1 l103 0 -6
-66 c-3 -37 -8 -105 -12 -152 -4 -47 -8 -92 -10 -100 -1 -8 -3 -21 -3 -27 -1
-10 -26 -13 -91 -13 -157 0 -163 -9 -165 -225 l-1 -160 -237 -1 -237 -1 0 154
c0 169 -9 206 -56 223 -14 6 -117 10 -230 10 l-204 0 0 945 0 945 230 0 231 0
-3 471 -3 471 -33 29 -32 29 -336 0 c-364 0 -375 -2 -404 -55 -11 -21 -15 -66
-15 -180 l0 -152 -122 -1 -123 0 0 111 c0 62 -2 496 -3 964 l-2 853 -28 27
-27 28 -170 3 c-159 3 -172 2 -199 -18 -37 -26 -45 -47 -47 -135 -1 -38 -2
-73 -3 -77 -1 -5 -50 -8 -111 -8 l-110 0 0 148 c-1 282 -1 478 0 571 l0 93
103 -5 c56 -4 111 -8 122 -10 11 -3 45 -8 75 -12 62 -8 90 -20 90 -38 0 -26
52 -88 90 -107 61 -31 127 -27 199 13 96 52 176 122 229 200 36 54 22 81 -55
102 -75 21 -154 51 -224 86 -54 27 -56 29 -68 83 -35 159 -156 294 -308 347
-70 24 -107 28 -295 36 l-158 6 0 -757z"/>
</g>
</svg>
